<mxfile host="65bd71144e">
    <diagram name="StrÃ¡nka-1" id="OBSkVTaFpxMP4thxVZIr">
        <mxGraphModel dx="1162" dy="496" grid="1" gridSize="10" guides="1" tooltips="1" connect="1" arrows="1" fold="1" page="1" pageScale="1" pageWidth="827" pageHeight="1169" math="0" shadow="0">
            <root>
                <mxCell id="0"/>
                <mxCell id="1" parent="0"/>
                <mxCell id="QXdiwTIiw0THXPtepUtQ-14" value="school" style="swimlane;fontStyle=1;childLayout=stackLayout;horizontal=1;startSize=26;horizontalStack=0;resizeParent=1;resizeParentMax=0;resizeLast=0;collapsible=1;marginBottom=0;align=center;fontSize=14;" parent="1" vertex="1">
                    <mxGeometry x="230" y="70" width="160" height="134" as="geometry"/>
                </mxCell>
                <mxCell id="QXdiwTIiw0THXPtepUtQ-15" value="&lt;&lt;PK&gt;&gt; id" style="text;strokeColor=none;fillColor=none;spacingLeft=4;spacingRight=4;overflow=hidden;rotatable=0;points=[[0,0.5],[1,0.5]];portConstraint=eastwest;fontSize=12;" parent="QXdiwTIiw0THXPtepUtQ-14" vertex="1">
                    <mxGeometry y="26" width="160" height="30" as="geometry"/>
                </mxCell>
                <mxCell id="QXdiwTIiw0THXPtepUtQ-16" value="name" style="text;strokeColor=none;fillColor=none;spacingLeft=4;spacingRight=4;overflow=hidden;rotatable=0;points=[[0,0.5],[1,0.5]];portConstraint=eastwest;fontSize=12;" parent="QXdiwTIiw0THXPtepUtQ-14" vertex="1">
                    <mxGeometry y="56" width="160" height="30" as="geometry"/>
                </mxCell>
                <mxCell id="QXdiwTIiw0THXPtepUtQ-37" value="description" style="text;strokeColor=none;fillColor=none;spacingLeft=4;spacingRight=4;overflow=hidden;rotatable=0;points=[[0,0.5],[1,0.5]];portConstraint=eastwest;fontSize=12;" parent="QXdiwTIiw0THXPtepUtQ-14" vertex="1">
                    <mxGeometry y="86" width="160" height="24" as="geometry"/>
                </mxCell>
                <mxCell id="3" value="location" style="text;strokeColor=none;fillColor=none;spacingLeft=4;spacingRight=4;overflow=hidden;rotatable=0;points=[[0,0.5],[1,0.5]];portConstraint=eastwest;fontSize=12;" vertex="1" parent="QXdiwTIiw0THXPtepUtQ-14">
                    <mxGeometry y="110" width="160" height="24" as="geometry"/>
                </mxCell>
                <mxCell id="QXdiwTIiw0THXPtepUtQ-18" value="faculty" style="swimlane;fontStyle=1;childLayout=stackLayout;horizontal=1;startSize=26;horizontalStack=0;resizeParent=1;resizeParentMax=0;resizeLast=0;collapsible=1;marginBottom=0;align=center;fontSize=14;" parent="1" vertex="1">
                    <mxGeometry x="230" y="270" width="160" height="146" as="geometry"/>
                </mxCell>
                <mxCell id="QXdiwTIiw0THXPtepUtQ-19" value="&lt;&lt;PK&gt;&gt; id" style="text;strokeColor=none;fillColor=none;spacingLeft=4;spacingRight=4;overflow=hidden;rotatable=0;points=[[0,0.5],[1,0.5]];portConstraint=eastwest;fontSize=12;" parent="QXdiwTIiw0THXPtepUtQ-18" vertex="1">
                    <mxGeometry y="26" width="160" height="30" as="geometry"/>
                </mxCell>
                <mxCell id="QXdiwTIiw0THXPtepUtQ-20" value="name" style="text;strokeColor=none;fillColor=none;spacingLeft=4;spacingRight=4;overflow=hidden;rotatable=0;points=[[0,0.5],[1,0.5]];portConstraint=eastwest;fontSize=12;" parent="QXdiwTIiw0THXPtepUtQ-18" vertex="1">
                    <mxGeometry y="56" width="160" height="30" as="geometry"/>
                </mxCell>
                <mxCell id="QXdiwTIiw0THXPtepUtQ-38" value="description" style="text;strokeColor=none;fillColor=none;spacingLeft=4;spacingRight=4;overflow=hidden;rotatable=0;points=[[0,0.5],[1,0.5]];portConstraint=eastwest;fontSize=12;" parent="QXdiwTIiw0THXPtepUtQ-18" vertex="1">
                    <mxGeometry y="86" width="160" height="30" as="geometry"/>
                </mxCell>
                <mxCell id="4" value="location" style="text;strokeColor=none;fillColor=none;spacingLeft=4;spacingRight=4;overflow=hidden;rotatable=0;points=[[0,0.5],[1,0.5]];portConstraint=eastwest;fontSize=12;" vertex="1" parent="QXdiwTIiw0THXPtepUtQ-18">
                    <mxGeometry y="116" width="160" height="30" as="geometry"/>
                </mxCell>
                <mxCell id="QXdiwTIiw0THXPtepUtQ-24" value="message" style="swimlane;fontStyle=1;childLayout=stackLayout;horizontal=1;startSize=26;horizontalStack=0;resizeParent=1;resizeParentMax=0;resizeLast=0;collapsible=1;marginBottom=0;align=center;fontSize=14;" parent="1" vertex="1">
                    <mxGeometry x="230" y="460" width="160" height="206" as="geometry"/>
                </mxCell>
                <mxCell id="QXdiwTIiw0THXPtepUtQ-25" value="&lt;&lt;PK&gt;&gt; id" style="text;strokeColor=none;fillColor=none;spacingLeft=4;spacingRight=4;overflow=hidden;rotatable=0;points=[[0,0.5],[1,0.5]];portConstraint=eastwest;fontSize=12;" parent="QXdiwTIiw0THXPtepUtQ-24" vertex="1">
                    <mxGeometry y="26" width="160" height="30" as="geometry"/>
                </mxCell>
                <mxCell id="QXdiwTIiw0THXPtepUtQ-26" value="title" style="text;strokeColor=none;fillColor=none;spacingLeft=4;spacingRight=4;overflow=hidden;rotatable=0;points=[[0,0.5],[1,0.5]];portConstraint=eastwest;fontSize=12;" parent="QXdiwTIiw0THXPtepUtQ-24" vertex="1">
                    <mxGeometry y="56" width="160" height="30" as="geometry"/>
                </mxCell>
                <mxCell id="QXdiwTIiw0THXPtepUtQ-27" value="text" style="text;strokeColor=none;fillColor=none;spacingLeft=4;spacingRight=4;overflow=hidden;rotatable=0;points=[[0,0.5],[1,0.5]];portConstraint=eastwest;fontSize=12;" parent="QXdiwTIiw0THXPtepUtQ-24" vertex="1">
                    <mxGeometry y="86" width="160" height="30" as="geometry"/>
                </mxCell>
                <mxCell id="QXdiwTIiw0THXPtepUtQ-35" value="creation_date" style="text;strokeColor=none;fillColor=none;spacingLeft=4;spacingRight=4;overflow=hidden;rotatable=0;points=[[0,0.5],[1,0.5]];portConstraint=eastwest;fontSize=12;" parent="QXdiwTIiw0THXPtepUtQ-24" vertex="1">
                    <mxGeometry y="116" width="160" height="30" as="geometry"/>
                </mxCell>
                <mxCell id="QXdiwTIiw0THXPtepUtQ-34" value="valid_from" style="text;strokeColor=none;fillColor=none;spacingLeft=4;spacingRight=4;overflow=hidden;rotatable=0;points=[[0,0.5],[1,0.5]];portConstraint=eastwest;fontSize=12;" parent="QXdiwTIiw0THXPtepUtQ-24" vertex="1">
                    <mxGeometry y="146" width="160" height="30" as="geometry"/>
                </mxCell>
                <mxCell id="QXdiwTIiw0THXPtepUtQ-36" value="valid_to" style="text;strokeColor=none;fillColor=none;spacingLeft=4;spacingRight=4;overflow=hidden;rotatable=0;points=[[0,0.5],[1,0.5]];portConstraint=eastwest;fontSize=12;" parent="QXdiwTIiw0THXPtepUtQ-24" vertex="1">
                    <mxGeometry y="176" width="160" height="30" as="geometry"/>
                </mxCell>
                <mxCell id="QXdiwTIiw0THXPtepUtQ-39" value="user" style="swimlane;fontStyle=1;childLayout=stackLayout;horizontal=1;startSize=26;horizontalStack=0;resizeParent=1;resizeParentMax=0;resizeLast=0;collapsible=1;marginBottom=0;align=center;fontSize=14;" parent="1" vertex="1">
                    <mxGeometry x="550" y="70" width="160" height="176" as="geometry"/>
                </mxCell>
                <mxCell id="QXdiwTIiw0THXPtepUtQ-40" value="&lt;&lt;PK&gt;&gt; id" style="text;strokeColor=none;fillColor=none;spacingLeft=4;spacingRight=4;overflow=hidden;rotatable=0;points=[[0,0.5],[1,0.5]];portConstraint=eastwest;fontSize=12;" parent="QXdiwTIiw0THXPtepUtQ-39" vertex="1">
                    <mxGeometry y="26" width="160" height="30" as="geometry"/>
                </mxCell>
                <mxCell id="QXdiwTIiw0THXPtepUtQ-41" value="name" style="text;strokeColor=none;fillColor=none;spacingLeft=4;spacingRight=4;overflow=hidden;rotatable=0;points=[[0,0.5],[1,0.5]];portConstraint=eastwest;fontSize=12;" parent="QXdiwTIiw0THXPtepUtQ-39" vertex="1">
                    <mxGeometry y="56" width="160" height="30" as="geometry"/>
                </mxCell>
                <mxCell id="QXdiwTIiw0THXPtepUtQ-42" value="email" style="text;strokeColor=none;fillColor=none;spacingLeft=4;spacingRight=4;overflow=hidden;rotatable=0;points=[[0,0.5],[1,0.5]];portConstraint=eastwest;fontSize=12;" parent="QXdiwTIiw0THXPtepUtQ-39" vertex="1">
                    <mxGeometry y="86" width="160" height="30" as="geometry"/>
                </mxCell>
                <mxCell id="QXdiwTIiw0THXPtepUtQ-43" value="password" style="text;strokeColor=none;fillColor=none;spacingLeft=4;spacingRight=4;overflow=hidden;rotatable=0;points=[[0,0.5],[1,0.5]];portConstraint=eastwest;fontSize=12;" parent="QXdiwTIiw0THXPtepUtQ-39" vertex="1">
                    <mxGeometry y="116" width="160" height="30" as="geometry"/>
                </mxCell>
                <mxCell id="QXdiwTIiw0THXPtepUtQ-44" value="description" style="text;strokeColor=none;fillColor=none;spacingLeft=4;spacingRight=4;overflow=hidden;rotatable=0;points=[[0,0.5],[1,0.5]];portConstraint=eastwest;fontSize=12;" parent="QXdiwTIiw0THXPtepUtQ-39" vertex="1">
                    <mxGeometry y="146" width="160" height="30" as="geometry"/>
                </mxCell>
                <mxCell id="17" style="edgeStyle=none;html=1;entryX=0.5;entryY=0;entryDx=0;entryDy=0;exitX=0.5;exitY=1;exitDx=0;exitDy=0;" edge="1" parent="1" source="QXdiwTIiw0THXPtepUtQ-46" target="5">
                    <mxGeometry relative="1" as="geometry">
                        <Array as="points">
                            <mxPoint x="630" y="470"/>
                        </Array>
                        <mxPoint x="630" y="440" as="sourcePoint"/>
                    </mxGeometry>
                </mxCell>
                <mxCell id="18" value="creates" style="edgeLabel;html=1;align=center;verticalAlign=middle;resizable=0;points=[];" vertex="1" connectable="0" parent="17">
                    <mxGeometry x="0.2057" y="-2" relative="1" as="geometry">
                        <mxPoint x="2" y="-13" as="offset"/>
                    </mxGeometry>
                </mxCell>
                <mxCell id="19" value="1" style="edgeLabel;html=1;align=center;verticalAlign=middle;resizable=0;points=[];" vertex="1" connectable="0" parent="17">
                    <mxGeometry x="-0.7829" y="-1" relative="1" as="geometry">
                        <mxPoint as="offset"/>
                    </mxGeometry>
                </mxCell>
                <mxCell id="20" value="0..N" style="edgeLabel;html=1;align=center;verticalAlign=middle;resizable=0;points=[];" vertex="1" connectable="0" parent="17">
                    <mxGeometry x="0.6156" relative="1" as="geometry">
                        <mxPoint as="offset"/>
                    </mxGeometry>
                </mxCell>
                <mxCell id="QXdiwTIiw0THXPtepUtQ-46" value="admin" style="swimlane;fontStyle=1;childLayout=stackLayout;horizontal=1;startSize=26;horizontalStack=0;resizeParent=1;resizeParentMax=0;resizeLast=0;collapsible=1;marginBottom=0;align=center;fontSize=14;" parent="1" vertex="1">
                    <mxGeometry x="550" y="340" width="160" height="60" as="geometry"/>
                </mxCell>
                <mxCell id="QXdiwTIiw0THXPtepUtQ-48" value="permission_level" style="text;strokeColor=none;fillColor=none;spacingLeft=4;spacingRight=4;overflow=hidden;rotatable=0;points=[[0,0.5],[1,0.5]];portConstraint=eastwest;fontSize=12;" parent="QXdiwTIiw0THXPtepUtQ-46" vertex="1">
                    <mxGeometry y="26" width="160" height="34" as="geometry"/>
                </mxCell>
                <mxCell id="QXdiwTIiw0THXPtepUtQ-50" value="" style="endArrow=classic;html=1;rounded=0;" parent="1" target="QXdiwTIiw0THXPtepUtQ-18" edge="1">
                    <mxGeometry width="50" height="50" relative="1" as="geometry">
                        <mxPoint x="310" y="200" as="sourcePoint"/>
                        <mxPoint x="270" y="340" as="targetPoint"/>
                    </mxGeometry>
                </mxCell>
                <mxCell id="QXdiwTIiw0THXPtepUtQ-52" value="has" style="edgeLabel;html=1;align=center;verticalAlign=middle;resizable=0;points=[];" parent="QXdiwTIiw0THXPtepUtQ-50" vertex="1" connectable="0">
                    <mxGeometry x="-0.1619" y="1" relative="1" as="geometry">
                        <mxPoint x="-1" y="9" as="offset"/>
                    </mxGeometry>
                </mxCell>
                <mxCell id="QXdiwTIiw0THXPtepUtQ-54" value="1" style="edgeLabel;html=1;align=center;verticalAlign=middle;resizable=0;points=[];" parent="QXdiwTIiw0THXPtepUtQ-50" vertex="1" connectable="0">
                    <mxGeometry x="-0.8981" relative="1" as="geometry">
                        <mxPoint x="10" y="10" as="offset"/>
                    </mxGeometry>
                </mxCell>
                <mxCell id="QXdiwTIiw0THXPtepUtQ-55" value="0..N" style="edgeLabel;html=1;align=center;verticalAlign=middle;resizable=0;points=[];" parent="QXdiwTIiw0THXPtepUtQ-50" vertex="1" connectable="0">
                    <mxGeometry x="0.6429" relative="1" as="geometry">
                        <mxPoint x="20" as="offset"/>
                    </mxGeometry>
                </mxCell>
                <mxCell id="QXdiwTIiw0THXPtepUtQ-51" value="" style="endArrow=classic;html=1;rounded=0;" parent="1" target="QXdiwTIiw0THXPtepUtQ-24" edge="1">
                    <mxGeometry width="50" height="50" relative="1" as="geometry">
                        <mxPoint x="310" y="420" as="sourcePoint"/>
                        <mxPoint x="340" y="410" as="targetPoint"/>
                    </mxGeometry>
                </mxCell>
                <mxCell id="QXdiwTIiw0THXPtepUtQ-53" value="publishes" style="edgeLabel;html=1;align=center;verticalAlign=middle;resizable=0;points=[];" parent="QXdiwTIiw0THXPtepUtQ-51" vertex="1" connectable="0">
                    <mxGeometry x="-0.0718" y="1" relative="1" as="geometry">
                        <mxPoint as="offset"/>
                    </mxGeometry>
                </mxCell>
                <mxCell id="QXdiwTIiw0THXPtepUtQ-56" value="1" style="edgeLabel;html=1;align=center;verticalAlign=middle;resizable=0;points=[];" parent="QXdiwTIiw0THXPtepUtQ-51" vertex="1" connectable="0">
                    <mxGeometry x="-0.8147" y="-1" relative="1" as="geometry">
                        <mxPoint x="11" y="7" as="offset"/>
                    </mxGeometry>
                </mxCell>
                <mxCell id="QXdiwTIiw0THXPtepUtQ-57" value="0..N" style="edgeLabel;html=1;align=center;verticalAlign=middle;resizable=0;points=[];" parent="QXdiwTIiw0THXPtepUtQ-51" vertex="1" connectable="0">
                    <mxGeometry x="0.5624" y="1" relative="1" as="geometry">
                        <mxPoint x="19" y="6" as="offset"/>
                    </mxGeometry>
                </mxCell>
                <mxCell id="QXdiwTIiw0THXPtepUtQ-58" value="" style="endArrow=classic;html=1;rounded=0;" parent="1" source="QXdiwTIiw0THXPtepUtQ-16" target="QXdiwTIiw0THXPtepUtQ-27" edge="1">
                    <mxGeometry width="50" height="50" relative="1" as="geometry">
                        <mxPoint x="460" y="340" as="sourcePoint"/>
                        <mxPoint x="190" y="450" as="targetPoint"/>
                        <Array as="points">
                            <mxPoint x="160" y="140"/>
                            <mxPoint x="160" y="561"/>
                        </Array>
                    </mxGeometry>
                </mxCell>
                <mxCell id="QXdiwTIiw0THXPtepUtQ-59" value="publishes" style="edgeLabel;html=1;align=center;verticalAlign=middle;resizable=0;points=[];" parent="QXdiwTIiw0THXPtepUtQ-58" vertex="1" connectable="0">
                    <mxGeometry x="0.0398" y="1" relative="1" as="geometry">
                        <mxPoint y="-16" as="offset"/>
                    </mxGeometry>
                </mxCell>
                <mxCell id="QXdiwTIiw0THXPtepUtQ-60" value="0..N" style="edgeLabel;html=1;align=center;verticalAlign=middle;resizable=0;points=[];" parent="QXdiwTIiw0THXPtepUtQ-58" vertex="1" connectable="0">
                    <mxGeometry x="0.9329" relative="1" as="geometry">
                        <mxPoint y="-11" as="offset"/>
                    </mxGeometry>
                </mxCell>
                <mxCell id="QXdiwTIiw0THXPtepUtQ-61" value="1" style="edgeLabel;html=1;align=center;verticalAlign=middle;resizable=0;points=[];" parent="QXdiwTIiw0THXPtepUtQ-58" vertex="1" connectable="0">
                    <mxGeometry x="-0.9689" y="-1" relative="1" as="geometry">
                        <mxPoint y="11" as="offset"/>
                    </mxGeometry>
                </mxCell>
                <mxCell id="QXdiwTIiw0THXPtepUtQ-71" value="" style="endArrow=classic;html=1;rounded=0;" parent="1" source="QXdiwTIiw0THXPtepUtQ-41" target="QXdiwTIiw0THXPtepUtQ-16" edge="1">
                    <mxGeometry width="50" height="50" relative="1" as="geometry">
                        <mxPoint x="420" y="260" as="sourcePoint"/>
                        <mxPoint x="470" y="210" as="targetPoint"/>
                    </mxGeometry>
                </mxCell>
                <mxCell id="QXdiwTIiw0THXPtepUtQ-73" value="follows" style="edgeLabel;html=1;align=center;verticalAlign=middle;resizable=0;points=[];" parent="QXdiwTIiw0THXPtepUtQ-71" vertex="1" connectable="0">
                    <mxGeometry x="0.103" y="1" relative="1" as="geometry">
                        <mxPoint x="8" y="-1" as="offset"/>
                    </mxGeometry>
                </mxCell>
                <mxCell id="QXdiwTIiw0THXPtepUtQ-74" value="0..N" style="edgeLabel;html=1;align=center;verticalAlign=middle;resizable=0;points=[];" parent="QXdiwTIiw0THXPtepUtQ-71" vertex="1" connectable="0">
                    <mxGeometry x="0.7042" y="-2" relative="1" as="geometry">
                        <mxPoint y="-9" as="offset"/>
                    </mxGeometry>
                </mxCell>
                <mxCell id="QXdiwTIiw0THXPtepUtQ-75" value="0..N" style="edgeLabel;html=1;align=center;verticalAlign=middle;resizable=0;points=[];" parent="QXdiwTIiw0THXPtepUtQ-71" vertex="1" connectable="0">
                    <mxGeometry x="-0.6887" y="-1" relative="1" as="geometry">
                        <mxPoint x="5" y="-10" as="offset"/>
                    </mxGeometry>
                </mxCell>
                <mxCell id="QXdiwTIiw0THXPtepUtQ-72" value="" style="endArrow=classic;html=1;rounded=0;" parent="1" source="QXdiwTIiw0THXPtepUtQ-42" target="QXdiwTIiw0THXPtepUtQ-20" edge="1">
                    <mxGeometry width="50" height="50" relative="1" as="geometry">
                        <mxPoint x="420" y="260" as="sourcePoint"/>
                        <mxPoint x="470" y="210" as="targetPoint"/>
                        <Array as="points">
                            <mxPoint x="460" y="170"/>
                            <mxPoint x="460" y="340"/>
                        </Array>
                    </mxGeometry>
                </mxCell>
                <mxCell id="QXdiwTIiw0THXPtepUtQ-76" value="0..N" style="edgeLabel;html=1;align=center;verticalAlign=middle;resizable=0;points=[];" parent="QXdiwTIiw0THXPtepUtQ-72" vertex="1" connectable="0">
                    <mxGeometry x="-0.8982" y="1" relative="1" as="geometry">
                        <mxPoint x="-3" y="-11" as="offset"/>
                    </mxGeometry>
                </mxCell>
                <mxCell id="QXdiwTIiw0THXPtepUtQ-77" value="follows" style="edgeLabel;html=1;align=center;verticalAlign=middle;resizable=0;points=[];" parent="QXdiwTIiw0THXPtepUtQ-72" vertex="1" connectable="0">
                    <mxGeometry x="-0.0014" y="1" relative="1" as="geometry">
                        <mxPoint as="offset"/>
                    </mxGeometry>
                </mxCell>
                <mxCell id="QXdiwTIiw0THXPtepUtQ-78" value="0..N" style="edgeLabel;html=1;align=center;verticalAlign=middle;resizable=0;points=[];" parent="QXdiwTIiw0THXPtepUtQ-72" vertex="1" connectable="0">
                    <mxGeometry x="0.9028" y="1" relative="1" as="geometry">
                        <mxPoint y="-11" as="offset"/>
                    </mxGeometry>
                </mxCell>
                <mxCell id="QXdiwTIiw0THXPtepUtQ-79" value="" style="endArrow=none;dashed=1;html=1;dashPattern=1 3;strokeWidth=2;rounded=0;startArrow=none;" parent="1" source="QXdiwTIiw0THXPtepUtQ-80" target="QXdiwTIiw0THXPtepUtQ-44" edge="1">
                    <mxGeometry width="50" height="50" relative="1" as="geometry">
                        <mxPoint x="560" y="360" as="sourcePoint"/>
                        <mxPoint x="610" y="310" as="targetPoint"/>
                    </mxGeometry>
                </mxCell>
                <mxCell id="QXdiwTIiw0THXPtepUtQ-82" value="" style="endArrow=none;dashed=1;html=1;rounded=0;strokeWidth=1;exitX=0.5;exitY=0;exitDx=0;exitDy=0;" parent="1" source="QXdiwTIiw0THXPtepUtQ-46" target="QXdiwTIiw0THXPtepUtQ-44" edge="1">
                    <mxGeometry width="50" height="50" relative="1" as="geometry">
                        <mxPoint x="580" y="250" as="sourcePoint"/>
                        <mxPoint x="630" y="200" as="targetPoint"/>
                    </mxGeometry>
                </mxCell>
                <mxCell id="QXdiwTIiw0THXPtepUtQ-80" value="" style="triangle;whiteSpace=wrap;html=1;rotation=-90;" parent="1" vertex="1">
                    <mxGeometry x="616.25" y="253" width="27.5" height="15" as="geometry"/>
                </mxCell>
                <mxCell id="5" value="edit" style="swimlane;fontStyle=1;childLayout=stackLayout;horizontal=1;startSize=26;horizontalStack=0;resizeParent=1;resizeParentMax=0;resizeLast=0;collapsible=1;marginBottom=0;align=center;fontSize=14;" vertex="1" parent="1">
                    <mxGeometry x="550" y="512" width="160" height="116" as="geometry"/>
                </mxCell>
                <mxCell id="7" value="&lt;&lt;PK&gt;&gt;id" style="text;strokeColor=none;fillColor=none;spacingLeft=4;spacingRight=4;overflow=hidden;rotatable=0;points=[[0,0.5],[1,0.5]];portConstraint=eastwest;fontSize=12;" vertex="1" parent="5">
                    <mxGeometry y="26" width="160" height="30" as="geometry"/>
                </mxCell>
                <mxCell id="11" value="timestamp" style="text;strokeColor=none;fillColor=none;spacingLeft=4;spacingRight=4;overflow=hidden;rotatable=0;points=[[0,0.5],[1,0.5]];portConstraint=eastwest;fontSize=12;" vertex="1" parent="5">
                    <mxGeometry y="56" width="160" height="30" as="geometry"/>
                </mxCell>
                <mxCell id="21" value="changes" style="text;strokeColor=none;fillColor=none;spacingLeft=4;spacingRight=4;overflow=hidden;rotatable=0;points=[[0,0.5],[1,0.5]];portConstraint=eastwest;fontSize=12;" vertex="1" parent="5">
                    <mxGeometry y="86" width="160" height="30" as="geometry"/>
                </mxCell>
                <mxCell id="12" style="edgeStyle=none;html=1;entryX=-0.005;entryY=0.739;entryDx=0;entryDy=0;entryPerimeter=0;" edge="1" parent="1" source="QXdiwTIiw0THXPtepUtQ-27" target="7">
                    <mxGeometry relative="1" as="geometry"/>
                </mxCell>
                <mxCell id="13" value="has" style="edgeLabel;html=1;align=center;verticalAlign=middle;resizable=0;points=[];" vertex="1" connectable="0" parent="12">
                    <mxGeometry x="0.1576" y="1" relative="1" as="geometry">
                        <mxPoint as="offset"/>
                    </mxGeometry>
                </mxCell>
                <mxCell id="15" value="0..N" style="edgeLabel;html=1;align=center;verticalAlign=middle;resizable=0;points=[];" vertex="1" connectable="0" parent="12">
                    <mxGeometry x="0.8235" y="3" relative="1" as="geometry">
                        <mxPoint as="offset"/>
                    </mxGeometry>
                </mxCell>
                <mxCell id="16" value="1" style="edgeLabel;html=1;align=center;verticalAlign=middle;resizable=0;points=[];" vertex="1" connectable="0" parent="12">
                    <mxGeometry x="-0.8474" y="1" relative="1" as="geometry">
                        <mxPoint as="offset"/>
                    </mxGeometry>
                </mxCell>
            </root>
        </mxGraphModel>
    </diagram>
</mxfile>
